<svg width="27" height="27" viewBox="0 0 27 27" fill="none" xmlns="http://www.w3.org/2000/svg">
<path fill-rule="evenodd" clip-rule="evenodd" d="M15.8654 0.535842C16.2559 0.145318 16.8891 0.145318 17.2796 0.535842L20.1798 3.43604C20.5703 3.82656 20.5703 4.45973 20.1798 4.85025C20.0498 4.98028 19.8929 5.06702 19.7269 5.11046C19.4913 5.20504 19.2652 5.35056 19.0663 5.54941C18.3102 6.30554 18.3417 7.3983 18.9369 7.99349C19.5321 8.58869 20.6248 8.62016 21.381 7.86402C21.5798 7.66517 21.7253 7.43903 21.8199 7.20343C21.8633 7.03751 21.9501 6.88058 22.0801 6.75055C22.4706 6.36003 23.1038 6.36003 23.4943 6.75055L26.3945 9.65075C26.785 10.0413 26.785 10.6744 26.3945 11.065L11.0649 26.3946C10.6744 26.7851 10.0412 26.7851 9.65069 26.3946L6.7505 23.4944C6.35997 23.1039 6.35997 22.4707 6.7505 22.0802C6.88052 21.9501 7.03744 21.8634 7.20335 21.82C7.43897 21.7254 7.66511 21.5799 7.86396 21.381C8.6201 20.6249 8.58863 19.5321 7.99344 18.9369C7.39824 18.3417 6.30549 18.3103 5.54935 19.0664C5.3505 19.2653 5.20497 19.4914 5.11039 19.727C5.06695 19.8929 4.98022 20.0498 4.8502 20.1799C4.45967 20.5704 3.82651 20.5704 3.43598 20.1799L0.535787 17.2797C0.145262 16.8891 0.145261 16.256 0.535787 15.8655L15.8654 0.535842ZM22.9875 9.07212C22.9262 9.14254 22.8621 9.21131 22.7952 9.27823C21.3489 10.7245 18.9868 10.8719 17.5227 9.40771C16.0585 7.94353 16.2059 5.58144 17.6521 4.13519C17.7191 4.06827 17.7878 4.00416 17.8582 3.9429L16.5725 2.65716L2.65711 16.5726L3.94284 17.8583C4.00411 17.7879 4.06821 17.7191 4.13514 17.6522C5.58139 16.2059 7.94347 16.0585 9.40765 17.5227C10.8718 18.9869 10.7244 21.349 9.27818 22.7952C9.21125 22.8622 9.14249 22.9263 9.07206 22.9875L10.3578 24.2733L24.2732 10.3579L22.9875 9.07212Z" fill="#092119"/>
<path d="M13.2581 7.87198L14.0867 8.70061" stroke="#092119" stroke-width="2" stroke-linecap="round" stroke-linejoin="round"/>
<path d="M15.7439 10.3578L16.5725 11.1865" stroke="#092119" stroke-width="2" stroke-linecap="round" stroke-linejoin="round"/>
<path d="M18.2297 12.8437L19.0584 13.6723" stroke="#092119" stroke-width="2" stroke-linecap="round" stroke-linejoin="round"/>
</svg>
